<svg width="50" height="50" viewBox="0 0 50 50" fill="none" xmlns="http://www.w3.org/2000/svg">
<circle cx="25" cy="25" r="25" fill="#FFEBEB"/>
<path d="M16.9896 32.0104L12.3229 29.4583L13.8542 27.9271L17.5 28.4375L23.1875 22.75L11.8125 16.5521L13.8542 14.5104L27.7813 18.0833L33.5052 12.4323C33.9184 12.0191 34.4349 11.8125 35.0547 11.8125C35.6745 11.8125 36.191 12.0191 36.6042 12.4323C37.0174 12.8455 37.224 13.362 37.224 13.9818C37.224 14.6016 37.0174 15.1181 36.6042 15.5312L30.9167 21.2187L34.4896 35.1458L32.4479 37.1875L26.25 25.8125L20.5625 31.5L21.0729 35.1458L19.5417 36.6771L16.9896 32.0104Z" fill="#B42319"/>
</svg>
