<svg width="50" height="50" viewBox="0 0 50 50" fill="none" xmlns="http://www.w3.org/2000/svg">
<circle cx="25" cy="25" r="25" fill="#FFEBEB"/>
<path d="M17.0625 22.5313L19.5 23.5625C19.7917 22.9792 20.0938 22.4167 20.4062 21.875C20.7188 21.3333 21.0625 20.7917 21.4375 20.25L19.6875 19.9063L17.0625 22.5313ZM21.5 25.125L25.0625 28.6563C25.9375 28.3229 26.875 27.8125 27.875 27.125C28.875 26.4375 29.8125 25.6563 30.6875 24.7813C32.1458 23.3229 33.2865 21.7031 34.1094 19.9219C34.9323 18.1406 35.2917 16.5 35.1875 15C33.6875 14.8958 32.0417 15.2552 30.25 16.0781C28.4583 16.9011 26.8333 18.0417 25.375 19.5C24.5 20.375 23.7188 21.3125 23.0312 22.3125C22.3438 23.3125 21.8333 24.25 21.5 25.125ZM27.0625 23.0938C26.5833 22.6146 26.3438 22.0261 26.3438 21.3281C26.3438 20.6302 26.5833 20.0417 27.0625 19.5625C27.5417 19.0833 28.1354 18.8438 28.8438 18.8438C29.5521 18.8438 30.1458 19.0833 30.625 19.5625C31.1042 20.0417 31.3438 20.6302 31.3438 21.3281C31.3438 22.0261 31.1042 22.6146 30.625 23.0938C30.1458 23.5729 29.5521 23.8125 28.8438 23.8125C28.1354 23.8125 27.5417 23.5729 27.0625 23.0938ZM27.6562 33.125L30.2812 30.5L29.9375 28.75C29.3958 29.125 28.8542 29.4636 28.3125 29.7656C27.7708 30.0677 27.2083 30.3646 26.625 30.6563L27.6562 33.125ZM37.4375 12.7188C37.8333 15.2396 37.5885 17.6927 36.7031 20.0781C35.8177 22.4636 34.2917 24.7396 32.125 26.9063L32.75 30C32.8333 30.4167 32.8125 30.8229 32.6875 31.2188C32.5625 31.6146 32.3542 31.9583 32.0625 32.25L26.8125 37.5L24.1875 31.3438L18.8438 26L12.6875 23.375L17.9062 18.125C18.1979 17.8333 18.5469 17.625 18.9531 17.5C19.3594 17.375 19.7708 17.3542 20.1875 17.4375L23.2812 18.0625C25.4479 15.8958 27.7188 14.3646 30.0938 13.4688C32.4688 12.5729 34.9167 12.3229 37.4375 12.7188ZM14.9062 29.9688C15.6354 29.2396 16.526 28.8698 17.5781 28.8594C18.6302 28.849 19.5208 29.2083 20.25 29.9375C20.9792 30.6667 21.3385 31.5573 21.3281 32.6094C21.3177 33.6615 20.9479 34.5521 20.2188 35.2813C19.6979 35.8021 18.8281 36.25 17.6094 36.625C16.3906 37 14.7083 37.3333 12.5625 37.625C12.8542 35.4792 13.1875 33.7969 13.5625 32.5781C13.9375 31.3594 14.3854 30.4896 14.9062 29.9688ZM16.6875 31.7188C16.4792 31.9271 16.2708 32.3073 16.0625 32.8594C15.8542 33.4115 15.7083 33.9688 15.625 34.5313C16.1875 34.4479 16.7448 34.3073 17.2969 34.1094C17.849 33.9115 18.2292 33.7083 18.4375 33.5C18.6875 33.25 18.8229 32.9479 18.8438 32.5938C18.8646 32.2396 18.75 31.9375 18.5 31.6875C18.25 31.4375 17.9479 31.3177 17.5938 31.3281C17.2396 31.3386 16.9375 31.4688 16.6875 31.7188Z" fill="#B42319"/>
</svg>
